<?xml version="1.0" standalone="no"?><!DOCTYPE svg PUBLIC "-//W3C//DTD SVG 1.1//EN" "http://www.w3.org/Graphics/SVG/1.1/DTD/svg11.dtd"><svg t="1773431295447" class="icon" viewBox="0 0 1024 1024" version="1.1" xmlns="http://www.w3.org/2000/svg" p-id="1204" xmlns:xlink="http://www.w3.org/1999/xlink" width="200" height="200"><path d="M762.976 823.328A469.536 469.536 0 0 1 50.4 512a468.576 468.576 0 0 1 142.496-258.816L59.392 119.808l60.384-60.384 844.8 844.8-60.384 60.32-141.216-141.216zM253.248 313.6A382.496 382.496 0 0 0 137.536 512a384.224 384.224 0 0 0 563.072 249.088l-86.4-86.4a192 192 0 0 1-264.8-264.8z m297.76 297.6l-138.4-138.208a106.656 106.656 0 0 0 138.272 138.272z m336.768 96.608l-61.056-61.024a381.216 381.216 0 0 0 59.776-134.912 384.224 384.224 0 0 0-478.944-284.128l-67.2-67.2A469.76 469.76 0 0 1 973.632 512a467.2 467.2 0 0 1-85.856 195.936zM500.192 320.32a192 192 0 0 1 203.616 203.328l-203.52-203.488z" fill="#86909C" p-id="1205"></path></svg>