<?xml version="1.0" standalone="no"?><!DOCTYPE svg PUBLIC "-//W3C//DTD SVG 1.1//EN" "http://www.w3.org/Graphics/SVG/1.1/DTD/svg11.dtd"><svg t="1773431271405" class="icon" viewBox="0 0 1024 1024" version="1.1" xmlns="http://www.w3.org/2000/svg" p-id="1052" xmlns:xlink="http://www.w3.org/1999/xlink" width="200" height="200"><path d="M512 128a469.536 469.536 0 0 1 461.632 384 469.44 469.44 0 0 1-923.232 0A469.504 469.504 0 0 1 512 128z m0 682.656A384.192 384.192 0 0 0 886.464 512a384.224 384.224 0 0 0-749.056 0 384.224 384.224 0 0 0 374.4 298.624zM512 704a192 192 0 1 1 192-192 192 192 0 0 1-192 192z m0-85.344A106.656 106.656 0 1 0 405.344 512 106.656 106.656 0 0 0 512 618.656z" fill="#86909C" p-id="1053"></path></svg>